<svg xmlns="http://www.w3.org/2000/svg" version="1.1" xmlns:xlink="http://www.w3.org/1999/xlink" xmlns:svgjs="http://svgjs.dev/svgjs" width="1500" height="329" viewBox="0 0 1500 329"><g transform="matrix(1,0,0,1,-0.9084522071641459,-0.07537642479124429)"><svg viewBox="0 0 396 87" data-background-color="#ffffff" preserveAspectRatio="xMidYMid meet" height="329" width="1500" xmlns="http://www.w3.org/2000/svg" xmlns:xlink="http://www.w3.org/1999/xlink"><g id="tight-bounds" transform="matrix(1,0,0,1,0.24008861730862918,0.020121083458008115)"><svg viewBox="0 0 395.52 86.95994654889209" height="86.95994654889209" width="395.52"><g><svg viewBox="0 0 395.52 86.95994654889209" height="86.95994654889209" width="395.52"><g><svg viewBox="0 0 395.52 86.95994654889209" height="86.95994654889209" width="395.52"><g id="textblocktransform"><svg viewBox="0 0 395.52 86.95994654889209" height="86.95994654889209" width="395.52" id="textblock"><g><svg viewBox="0 0 395.52 86.95994654889209" height="86.95994654889209" width="395.52"><path d="M394.594 18.651C392.735 9.625 387.435 7.115 387.435 7.115 371.165-2.182 350.86-0.178 332.619 1.158 300.414 1.212 268.339 3.198 236.208 4.263 168.767 4.426 100.749 1.754 33.643 8.343 27.339 10.365-6.54 8.74 1.121 19.807 3.129 24.41 10.456 29.519 10.232 33.743 11.236 34.484 12.631 32.787 13.226 33.852 15.309 36.722 18.711 35.368 21.501 37.065 17.614 41.596 20.403 45.369 23.062 49.323 18.377 50.352 12.371 49.865 9.675 53.277 9.396 55.75 7.89 55.28 6.235 55.172 5.026 55.1 2.59 55.371 2.999 56.147 4.394 58.801-1.594 60.335 2.162 62.935-0.422 65.751 3.948 68.188 3.353 71.239 3.278 71.853 3.687 72.376 4.338 72.521 7.22 73.297 3.018 74.814 3.464 76.456 33.029 87.685 65.104 79.923 95.394 85.086 103.259 81.475 97.346 86.367 100.489 85.609 102.943 84.725 104.728 88.389 107.499 86.313 107.927 85.717 107.276 84.309 108.8 84.58 109.6 84.725 110.307 84.688 110.418 83.858 110.586 82.612 109.117 83.389 108.726 82.739 112.947 79.453 111.906 87.27 115.866 86.945 115.68 85.988 114.528 84.616 116.889 84.797 119.232 83.425 119.306 82.287 121.389 85.374 121.463 86.042 121.835 86.512 122.43 86.837 128.938 83.479 135.409 88.028 142.233 86.512 146.417 84.851 150.433 87.414 154.672 86.783 156.16 86.277 157.666 85.374 159.098 86.891 176.632 87.216 195.319 85.862 211.943 86.945 256.364 84.923 303.836 87.776 350.674 85.104 361.719 84.075 373.192 82.612 383.958 81.439 383.958 81.439 392.679 78.226 392.679 63.783S394.538 51.146 394.817 39.647C395.096 28.147 396.398 27.678 394.538 18.651Z" opacity="1" fill="#61c074" data-fill-palette-color="tertiary"></path><g transform="matrix(1,0,0,1,55.76832,26.230666666666668)"><svg width="283.98335999999995" viewBox="2.5 -38.85 338.28 41.098807874071994" height="34.498613215558755" data-palette-color="#ffffff"><path d="M33.4-3.7L33.4-3.7Q34.4-3.3 35.2-2.83 36-2.35 36.8-1.7L36.8-1.7Q37.25-1.3 37.4-0.75 37.55-0.2 37.43 0.35 37.3 0.9 36.93 1.33 36.55 1.75 35.9 1.9L35.9 1.9Q34.25 2.25 32.55 1.85 30.85 1.45 29.4 0.8L29.4 0.8Q29.1 0.65 28.4 0.28 27.7-0.1 26.8-0.58 25.9-1.05 24.93-1.6 23.95-2.15 23.05-2.63 22.15-3.1 21.43-3.45 20.7-3.8 20.35-3.95L20.35-3.95Q20.15-3.85 19.1-3.25 18.05-2.65 16.8-1.95 15.55-1.25 14.5-0.65 13.45-0.05 13.3 0.05L13.3 0.05Q12.45 0.5 11.58 0.93 10.7 1.35 9.8 1.65L9.8 1.65Q8.9 2 7.9 2.18 6.9 2.35 5.95 2.1L5.95 2.1Q5.3 1.95 4.73 1.55 4.15 1.15 4.05 0.55L4.05 0.55Q3.95 0.25 4-0.05 4.05-0.35 4.15-0.6L4.15-0.6Q4.35-1.4 5.03-1.88 5.7-2.35 6.45-2.75L6.45-2.75Q7.3-3.25 8.2-3.68 9.1-4.1 10-4.55L10-4.55Q10.95-5 11.85-5.45 12.75-5.9 13.65-6.4L13.65-6.4Q13.7-6.45 14.2-6.68 14.7-6.9 15.28-7.2 15.85-7.5 16.35-7.78 16.85-8.05 16.85-8.15L16.85-8.15 8.8-8.15Q7.8-8.25 7-8.5L7-8.5Q6.3-8.75 5.68-9.1 5.05-9.45 4.9-10.15L4.9-10.15Q4.8-11.15 5.3-12.13 5.8-13.1 7-13.2L7-13.2 17.5-13.2Q17.55-14.05 17.65-14.65 17.75-15.25 18.15-15.95L18.15-15.95Q18.7-16.95 19.75-17.35 20.8-17.75 21.85-17.2L21.85-17.2Q22.85-16.7 23.25-15.7 23.65-14.7 23.75-13.55L23.75-13.55 23.75-13.2 30.85-13.2Q31.75-13.2 32.68-13.18 33.6-13.15 34.4-12.95 35.2-12.75 35.73-12.3 36.25-11.85 36.25-10.95L36.25-10.95Q36.3-9.9 35.83-9.3 35.35-8.7 34.6-8.45 33.85-8.2 32.93-8.15 32-8.1 31.2-8.15L31.2-8.15 24.55-8.15Q24.65-8.05 25.33-7.7 26-7.35 26.93-6.88 27.85-6.4 28.93-5.85 30-5.3 30.93-4.83 31.85-4.35 32.55-4.03 33.25-3.7 33.4-3.7ZM20.7-19.45L7.65-19.45Q6.15-19.45 5.2-19.78 4.25-20.1 3.5-21.1L3.5-21.1Q2.55-22.35 2.55-23.9L2.55-23.9Q2.55-24.95 2.53-25.8 2.5-26.65 2.5-27.43 2.5-28.2 2.5-29.05 2.5-29.9 2.55-30.95L2.55-30.95Q2.6-32.25 2.58-33.68 2.55-35.1 3.2-36.25L3.2-36.25Q3.55-36.9 4.28-37.33 5-37.75 5.8-37.85 6.6-37.95 7.35-37.68 8.1-37.4 8.5-36.75L8.5-36.75Q9.4-35.25 9.38-33.8 9.35-32.35 9.35-30.65L9.35-30.65Q9.35-29.45 9.38-28.6 9.4-27.75 9.55-26.5L9.55-26.5Q9.6-25.9 9.85-25.63 10.1-25.35 10.45-25.25 10.8-25.15 11.25-25.15 11.7-25.15 12.15-25.15L12.15-25.15 22.3-24.85Q22.95-24.85 23.38-24.48 23.8-24.1 24-23.58 24.2-23.05 24.25-22.48 24.3-21.9 24.2-21.45L24.2-21.45Q24.05-20.3 23.05-19.88 22.05-19.45 20.7-19.45L20.7-19.45ZM36.85-24L35.7-24 35.7-19.95Q35.65-19.4 35.55-18.82 35.45-18.25 35.15-17.7L35.15-17.7Q34.85-17.1 34.3-16.7L34.3-16.7Q33.9-16.45 33.38-16.32 32.85-16.2 32.45-16.2L32.45-16.2Q32.05-16.2 31.6-16.28 31.15-16.35 30.85-16.55L30.85-16.55Q30.35-16.85 30.05-17.3 29.75-17.75 29.58-18.18 29.4-18.6 29.35-18.93 29.3-19.25 29.3-19.25L29.3-19.25 29.3-34.75Q29.25-34.95 29.35-35.85 29.45-36.75 29.75-37.35L29.75-37.35Q30-37.85 30.63-38.15 31.25-38.45 31.95-38.55L31.95-38.55Q32.8-38.65 33.65-38.45 34.5-38.25 34.9-37.8L34.9-37.8Q35.2-37.4 35.33-37.02 35.45-36.65 35.55-36.25L35.55-36.25Q35.7-35.75 35.73-35.2 35.75-34.65 35.7-34.1L35.7-34.1 35.7-29.55Q35.9-29.55 36.45-29.53 37-29.5 37.6-29.48 38.2-29.45 38.75-29.4 39.3-29.35 39.55-29.3L39.55-29.3Q40.55-29.1 40.95-28.73 41.35-28.35 41.45-27.8L41.45-27.8Q41.6-27.25 41.6-26.53 41.6-25.8 41.3-25.3L41.3-25.3Q40.7-24.3 39.5-24.18 38.3-24.05 36.85-24L36.85-24ZM59.5-4.5L76.55-4.5Q76.55-4.5 76.87-4.4 77.2-4.3 77.6-4.08 78-3.85 78.35-3.48 78.7-3.1 78.8-2.6L78.8-2.6Q79.05-0.7 78.15 0.35L78.15 0.35Q77.55 1.05 76.85 1.2 76.15 1.35 76.1 1.35L76.1 1.35 50.05 1.35Q48 1.35 46.85 0.73 45.7 0.1 45.7-1.05L45.7-1.05 45.7-8Q45.7-8.3 45.67-8.75 45.65-9.2 45.65-9.73 45.65-10.25 45.67-10.7 45.7-11.15 45.7-11.45L45.7-11.45Q45.8-12.5 46.7-13.15 47.6-13.8 48.75-13.8L48.75-13.8Q49-13.8 49.37-13.78 49.75-13.75 50-13.65L50-13.65Q50.65-13.45 51.05-12.98 51.45-12.5 51.65-11.9 51.85-11.3 51.9-10.63 51.95-9.95 52-9.4L52-9.4Q52-9.2 52-8.47 52-7.75 52-6.93 52-6.1 52-5.43 52-4.75 52-4.6L52-4.6Q52.15-4.55 52.82-4.48 53.5-4.4 55.35-4.4L55.35-4.4Q56.95-4.4 58.2-4.45 59.45-4.5 59.5-4.5L59.5-4.5ZM43.25-16.05L43.25-16.05Q42.55-16.35 42.25-17.2L42.25-17.2Q41.85-18.2 42.12-19.2 42.4-20.2 43-21.1 43.6-22 44.37-22.8 45.15-23.6 45.7-24.3L45.7-24.3Q46.55-25.35 47.35-26.4 48.15-27.45 49-28.55L49-28.55Q49.6-29.4 50.25-30.55 50.9-31.7 51-32.8L51-32.8Q51-33.1 51.05-33.58 51.1-34.05 51.12-34.58 51.15-35.1 51.2-35.55 51.25-36 51.35-36.3L51.35-36.3Q51.65-37.3 52.32-37.68 53-38.05 54.4-38.05L54.4-38.05Q55.2-38.05 56.2-37.77 57.2-37.5 57.55-36.7L57.55-36.7Q57.9-35.8 57.77-34.63 57.65-33.45 57.95-32.5L57.95-32.5Q58.2-31.75 58.7-30.95 59.2-30.15 59.75-29.35L59.75-29.35Q60.7-28 61.65-26.43 62.6-24.85 63.4-23.75L63.4-23.75Q64.2-22.7 64.95-21.58 65.7-20.45 65.95-19.15L65.95-19.15Q66.2-18.05 65.72-17.32 65.25-16.6 64.45-16.28 63.65-15.95 62.7-16.13 61.75-16.3 61.05-17L61.05-17Q59.2-18.9 57.7-21.08 56.2-23.25 54.6-25.35L54.6-25.35Q54.6-25.35 54.15-24.85 53.7-24.35 53.05-23.55 52.4-22.75 51.6-21.8 50.8-20.85 50.1-20 49.4-19.15 48.87-18.53 48.35-17.9 48.25-17.75L48.25-17.75Q47.7-17.1 47-16.6 46.3-16.1 45.45-15.9L45.45-15.9Q44.9-15.8 44.32-15.8 43.75-15.8 43.25-16.05ZM71.5-24.4L70.3-24.4Q68.85-24.5 67.7-24.58 66.55-24.65 65.9-25.65L65.9-25.65Q65.6-26.15 65.6-26.9 65.6-27.65 65.7-28.2L65.7-28.2Q65.85-28.75 66.25-29.13 66.65-29.5 67.65-29.75L67.65-29.75Q67.85-29.8 68.4-29.83 68.95-29.85 69.57-29.9 70.2-29.95 70.75-29.98 71.3-30 71.5-30L71.5-30 71.5-34.3Q71.45-34.85 71.47-35.4 71.5-35.95 71.65-36.5L71.65-36.5Q71.75-36.9 71.85-37.25 71.95-37.6 72.3-38L72.3-38Q72.7-38.5 73.42-38.7 74.15-38.9 75-38.8L75-38.8Q76.6-38.55 77.05-37.55L77.05-37.55Q77.35-36.95 77.42-36.08 77.5-35.2 77.5-35L77.5-35 77.5-16.2 77.45-16.2Q77.45-16.15 77.4-15.85 77.35-15.55 77.2-15.13 77.05-14.7 76.75-14.25 76.45-13.8 75.95-13.5L75.95-13.5Q75.25-13.1 74.55-13.1L74.55-13.1Q73.7-13.1 72.9-13.65L72.9-13.65Q72.3-14.05 72.05-14.65L72.05-14.65Q71.75-15.2 71.65-15.75 71.55-16.3 71.5-16.85L71.5-16.85 71.5-24.4ZM149.69-22.75L149.69-22.75Q150.44-22.75 151.24-22.63 152.04-22.5 152.74-22.13 153.44-21.75 153.89-21.13 154.34-20.5 154.34-19.45L154.34-19.45Q154.34-18.4 153.54-17.8 152.74-17.2 151.59-16.9 150.44-16.6 149.17-16.53 147.89-16.45 146.94-16.45L146.94-16.45 139.89-16.45Q138.99-16.45 138.07-16.45 137.14-16.45 136.32-16.6 135.49-16.75 134.84-17.07 134.19-17.4 133.79-18L133.79-18Q133.34-18.65 133.17-19.63 132.99-20.6 132.92-21.53 132.84-22.45 132.87-23.13 132.89-23.8 132.89-23.9L132.89-23.9 132.99-32.9Q132.99-33.05 132.99-33.45 132.99-33.85 133.04-34.33 133.09-34.8 133.19-35.3 133.29-35.8 133.49-36.1L133.49-36.1Q133.94-36.8 134.42-37.15 134.89-37.5 135.69-37.6L135.69-37.6Q136.69-37.8 138.59-37.8L138.59-37.8Q138.74-37.8 139.49-37.8 140.24-37.8 141.27-37.77 142.29-37.75 143.49-37.73 144.69-37.7 145.72-37.68 146.74-37.65 147.49-37.63 148.24-37.6 148.39-37.6L148.39-37.6Q149.04-37.6 149.74-37.58 150.44-37.55 151.09-37.4 151.74-37.25 152.32-36.93 152.89-36.6 153.29-35.95L153.29-35.95Q153.84-35.1 153.82-34.1 153.79-33.1 153.19-32.25L153.19-32.25Q152.89-31.85 152.39-31.6 151.89-31.35 151.29-31.23 150.69-31.1 150.12-31.08 149.54-31.05 149.14-31.05L149.14-31.05 139.84-31.1 139.94-22.9Q140.59-22.85 141.94-22.8 143.29-22.75 144.79-22.75 146.29-22.75 147.67-22.75 149.04-22.75 149.69-22.75ZM164.29 1.35L141.04 1.35Q138.99 1.35 137.74 0.48 136.49-0.4 136.49-1.55L136.49-1.55 136.49-8.75Q136.39-9.85 136.49-11L136.49-11Q136.59-12.05 137.32-12.7 138.04-13.35 139.19-13.35L139.19-13.35Q139.44-13.35 140.09-13.33 140.74-13.3 140.99-13.2L140.99-13.2Q141.64-13 142.02-12.6 142.39-12.2 142.59-11.68 142.79-11.15 142.84-10.58 142.89-10 142.94-9.45L142.94-9.45Q142.94-9.25 142.97-8.53 142.99-7.8 143.02-6.98 143.04-6.15 143.07-5.45 143.09-4.75 143.14-4.6L143.14-4.6Q143.29-4.55 143.97-4.48 144.64-4.4 146.49-4.4L146.49-4.4Q148.09-4.4 148.47-4.45 148.84-4.5 148.89-4.5L148.89-4.5 164.74-4.5Q164.74-4.5 165.07-4.4 165.39-4.3 165.79-4.08 166.19-3.85 166.54-3.48 166.89-3.1 166.99-2.6L166.99-2.6Q167.24-0.7 166.34 0.35L166.34 0.35Q165.74 1.05 165.04 1.2 164.34 1.35 164.29 1.35L164.29 1.35ZM168.19-22.95L165.54-22.95 165.54-17.45Q165.49-16.9 165.39-16.32 165.29-15.75 164.99-15.2L164.99-15.2Q164.69-14.6 164.14-14.2L164.14-14.2Q163.74-13.95 163.22-13.83 162.69-13.7 162.29-13.7L162.29-13.7Q161.89-13.7 161.44-13.78 160.99-13.85 160.69-14.05L160.69-14.05Q160.19-14.35 159.89-14.8 159.59-15.25 159.42-15.68 159.24-16.1 159.19-16.43 159.14-16.75 159.14-16.75L159.14-16.75 159.14-34.75Q159.09-34.95 159.19-35.85 159.29-36.75 159.59-37.35L159.59-37.35Q159.84-37.85 160.47-38.15 161.09-38.45 161.79-38.55L161.79-38.55Q162.64-38.65 163.49-38.45 164.34-38.25 164.74-37.8L164.74-37.8Q165.04-37.4 165.17-37.02 165.29-36.65 165.39-36.25L165.39-36.25Q165.54-35.75 165.57-35.2 165.59-34.65 165.54-34.1L165.54-34.1 165.54-28.5Q165.74-28.5 166.37-28.48 166.99-28.45 167.69-28.43 168.39-28.4 169.02-28.35 169.64-28.3 169.89-28.25L169.89-28.25Q170.89-28.05 171.29-27.68 171.69-27.3 171.79-26.75L171.79-26.75Q171.94-26.2 171.94-25.48 171.94-24.75 171.64-24.25L171.64-24.25Q171.34-23.75 171.04-23.5 170.74-23.25 170.34-23.13 169.94-23 169.44-22.98 168.94-22.95 168.19-22.95L168.19-22.95ZM184.14-38.6L184.14-38.6Q184.79-38.6 185.39-38.55 185.99-38.5 186.59-38.4L186.59-38.4Q188.49-38.1 189.94-36.65L189.94-36.65Q191.14-35.35 191.92-33.68 192.69-32 193.14-30.15 193.59-28.3 193.79-26.38 193.99-24.45 194.09-22.65L194.09-22.65Q194.19-20.35 194.14-18.05 194.09-15.75 193.84-13.5L193.84-13.5Q193.59-11.15 193.12-8.78 192.64-6.4 191.39-4.5L191.39-4.5Q190.34-2.9 188.79-1.88 187.24-0.85 185.54-0.5L185.54-0.5Q183.99-0.2 182.39-0.4 180.79-0.6 179.34-1.45L179.34-1.45Q177.99-2.25 177.06-3.45 176.14-4.65 175.44-6.25L175.44-6.25Q174.44-8.65 174.29-11.2L174.29-11.2Q174.09-13.3 174.02-15.4 173.94-17.5 173.94-19.6L173.94-19.6Q173.94-21.05 173.97-22.43 173.99-23.8 174.14-25.2L174.14-25.2Q174.24-26.35 174.39-27.48 174.54-28.6 174.74-29.7L174.74-29.7Q174.94-30.6 175.09-31.4 175.24-32.2 175.64-33.05L175.64-33.05Q176.04-33.9 176.52-34.65 176.99-35.4 177.64-36L177.64-36Q178.74-37.1 180.09-37.7 181.44-38.3 182.89-38.5L182.89-38.5Q183.19-38.55 183.52-38.55 183.84-38.55 184.14-38.6ZM202.09-16.75L202.09-16.75Q201.39-16.85 200.24-16.88 199.09-16.9 198.39-17L198.39-17Q196.64-17.1 195.89-18.3 195.14-19.5 195.69-21.4L195.69-21.4Q195.79-21.8 196.12-22.25 196.44-22.7 196.74-22.95L196.74-22.95Q197.44-23.45 198.14-23.6L198.14-23.6Q198.94-23.7 200.06-23.65 201.19-23.6 202.04-23.7L202.04-23.7 202.19-23.7 202.19-23.9Q202.19-24.5 202.22-24.8 202.24-25.1 202.24-25.35 202.24-25.6 202.22-25.9 202.19-26.2 202.19-26.85L202.19-26.85Q202.19-28.15 202.17-29.43 202.14-30.7 202.19-31.95L202.19-31.95 202.19-32.65Q202.19-33.3 202.22-34.08 202.24-34.85 202.34-35.63 202.44-36.4 202.69-37.08 202.94-37.75 203.39-38.2L203.39-38.2Q204.14-38.85 204.99-38.85L204.99-38.85 205.09-38.85Q206.29-38.8 207.02-38.13 207.74-37.45 208.12-36.5 208.49-35.55 208.59-34.52 208.69-33.5 208.69-32.7L208.69-32.7 208.69-2.7Q208.69-2.65 208.69-2.23 208.69-1.8 208.59-1.2 208.49-0.6 208.29 0 208.09 0.6 207.64 1L207.64 1Q207.29 1.35 206.64 1.55 205.99 1.75 205.44 1.75L205.44 1.75Q204.24 1.75 203.54 0.95L203.54 0.95Q202.89 0.25 202.74-0.5 202.59-1.25 202.49-2.1L202.49-2.1Q202.49-2.25 202.47-2.4 202.44-2.55 202.44-2.75L202.44-2.75Q202.34-3.55 202.34-4.45 202.34-5.35 202.29-6.25L202.29-6.25Q202.24-6.8 202.24-7.33 202.24-7.85 202.24-8.4L202.24-8.4 202.24-9.55Q202.24-10.05 202.24-10.88 202.24-11.7 202.22-12.6 202.19-13.5 202.19-14.3 202.19-15.1 202.19-15.65L202.19-15.65Q202.19-15.9 202.19-16.2 202.19-16.5 202.09-16.75ZM183.99-7.15L183.99-7.15Q184.94-7.15 185.84-7.75L185.84-7.75Q186.69-8.35 187.04-9.35 187.39-10.35 187.64-11.55L187.64-11.55Q188.04-13.85 188.09-16.45 188.14-19.05 188.04-21.45L188.04-21.45Q188.04-22.4 187.99-23.48 187.94-24.55 187.81-25.6 187.69-26.65 187.44-27.63 187.19-28.6 186.74-29.35L186.74-29.35Q186.24-30.2 185.54-30.65 184.84-31.1 184.04-31L184.04-31Q183.19-30.9 182.49-30.4 181.79-29.9 181.34-28.9L181.34-28.9 180.89-27.85Q180.59-26.9 180.44-25.88 180.29-24.85 180.19-23.85L180.19-23.85Q180.09-22.85 180.04-21.8 179.99-20.75 179.99-19.75L179.99-19.75Q180.04-18.75 179.97-17.8 179.89-16.85 179.99-15.85L179.99-15.85Q180.09-14.55 180.27-13.05 180.44-11.55 180.84-10.23 181.24-8.9 181.99-8.03 182.74-7.15 183.99-7.15ZM273.74-31.95L273.69-31.95Q271.84-31.95 269.81-31.83 267.79-31.7 265.94-31.95L265.94-31.95Q265.09-32.05 264.66-33.13 264.24-34.2 264.24-35.45L264.24-35.45Q264.29-36.6 265.09-37.15 265.89-37.7 266.74-37.95L266.74-37.95Q267.79-38.25 268.76-38.27 269.74-38.3 270.84-38.35L270.84-38.35Q271.54-38.35 272.44-38.33 273.34-38.3 274.04-38.3L274.04-38.3 278.04-38.3Q278.34-38.3 278.64-38.33 278.94-38.35 279.24-38.3L279.24-38.3 280.64-38.3Q281.09-38.3 281.54-38.27 281.99-38.25 282.39-38.25L282.39-38.25Q282.84-38.25 283.29-38.25 283.74-38.25 284.19-38.2L284.19-38.2Q284.44-38.2 284.64-38.2 284.84-38.2 285.04-38.1L285.04-38.1Q285.34-38 285.59-37.9L285.59-37.9Q286.04-37.65 286.44-37.35 286.84-37.05 287.09-36.6L287.09-36.6Q287.54-35.85 287.66-35 287.79-34.15 287.79-33.3L287.79-33.3Q287.79-32.15 287.81-30.73 287.84-29.3 287.86-27.83 287.89-26.35 287.89-24.93 287.89-23.5 287.84-22.35L287.84-22.35Q287.79-21.65 287.81-21.25 287.84-20.85 287.79-20.5 287.74-20.15 287.61-19.8 287.49-19.45 287.14-18.85L287.14-18.85Q286.74-18.15 286.04-17.7 285.34-17.25 284.56-17.15 283.79-17.05 283.09-17.32 282.39-17.6 281.94-18.3L281.94-18.3Q281.49-19.05 281.29-19.53 281.09-20 281.01-20.43 280.94-20.85 280.99-21.38 281.04-21.9 281.04-22.75L281.04-22.75 266.29-22.75Q266.29-22.75 266.06-22.75 265.84-22.75 265.56-22.83 265.29-22.9 264.99-23.08 264.69-23.25 264.49-23.6L264.49-23.6Q264.19-24.2 264.19-25.15L264.19-25.15Q264.19-26.1 264.54-26.65L264.54-26.65Q264.89-27.2 265.26-27.3 265.64-27.4 266.04-27.5L266.04-27.5Q266.24-27.5 266.34-27.55L266.34-27.55Q266.74-27.65 267.16-27.68 267.59-27.7 268.04-27.75L268.04-27.75Q268.74-27.8 269.84-27.83 270.94-27.85 272.14-27.88 273.34-27.9 274.49-27.9 275.64-27.9 276.39-27.9L276.39-27.9Q277.39-27.9 278.66-27.9 279.94-27.9 281.04-27.85L281.04-27.85Q281.04-28.85 281.04-29.78 281.04-30.7 280.94-31.7L280.94-31.7Q279.39-31.75 277.36-31.83 275.34-31.9 273.74-31.95L273.74-31.95ZM299.09 0.3L299.09 0.3Q298.84 0.95 298.14 1.35L298.14 1.35Q297.59 1.7 296.94 1.78 296.29 1.85 295.64 1.75L295.64 1.75Q294.89 1.6 294.39 1.15L294.39 1.15Q293.94 0.75 293.71 0.13 293.49-0.5 293.36-1.1 293.24-1.7 293.24-2.15 293.24-2.6 293.24-2.6L293.24-2.6 293.24-33.05Q293.24-33.6 293.24-34.3 293.24-35 293.34-35.7 293.44-36.4 293.61-36.98 293.79-37.55 294.14-37.9L294.14-37.9Q294.69-38.45 295.29-38.55 295.89-38.65 296.59-38.65L296.59-38.65Q297.44-38.65 298.14-38.2 298.84-37.75 299.14-36.95L299.14-36.95Q299.59-35.9 299.64-34.77 299.69-33.65 299.74-32.5L299.74-32.5Q299.84-28.5 299.79-24.5 299.74-20.5 299.74-16.95L299.74-16.95 299.74-4.45Q299.74-3.3 299.61-2.13 299.49-0.95 299.09 0.3ZM265.69-10.25L265.69-10.25Q264.99-10.3 264.29-10.53 263.59-10.75 262.99-11.4L262.99-11.4Q262.39-12 262.39-13.15L262.39-13.15Q262.39-14.2 262.99-14.9L262.99-14.9Q263.34-15.3 263.86-15.5 264.39-15.7 264.89-15.8 265.39-15.9 265.76-15.9 266.14-15.9 266.19-15.9L266.19-15.9 285.84-15.9Q286.84-15.9 287.94-15.8 289.04-15.7 289.79-15L289.79-15Q290.24-14.55 290.41-14.05 290.59-13.55 290.59-12.95L290.59-12.95Q290.59-12.2 290.24-11.58 289.89-10.95 289.19-10.7L289.19-10.7Q288.29-10.3 287.34-10.23 286.39-10.15 285.44-10.1L285.44-10.1Q283.99-10.05 283.19-10 282.39-9.95 281.86-9.93 281.34-9.9 280.86-9.9 280.39-9.9 279.54-9.9L279.54-9.9 279.49-2.4Q279.49-0.95 278.59 0.1 277.69 1.15 276.29 1.05L276.29 1.05Q275.74 1 275.24 0.85 274.74 0.7 274.34 0.38 273.94 0.05 273.69-0.53 273.44-1.1 273.44-2.05L273.44-2.05 273.29-9.95Q271.34-10 269.64-10.08 267.94-10.15 265.69-10.25ZM311.18-36.5L333.73-36.6Q334.63-36.6 335.43-36.5 336.23-36.4 336.83-36.1 337.43-35.8 337.78-35.27 338.13-34.75 338.13-33.9L338.13-33.9Q338.18-32.65 337.81-31.98 337.43-31.3 336.76-31 336.08-30.7 335.23-30.68 334.38-30.65 333.53-30.7L333.53-30.7 326.03-30.6 326.08-28.7Q326.08-28.3 326.03-27.75 325.98-27.2 326.08-26.8L326.08-26.8Q326.23-26.25 326.63-25.88 327.03-25.5 327.38-25.1L327.38-25.1Q328.83-23.4 330.76-22.05 332.68-20.7 334.58-19.05L334.58-19.05Q335.03-18.55 335.58-17.98 336.13-17.4 336.53-16.73 336.93-16.05 337.06-15.35 337.18-14.65 336.83-13.9L336.83-13.9Q336.43-13.1 335.71-12.8 334.98-12.5 334.18-12.55 333.38-12.6 332.56-12.88 331.73-13.15 331.13-13.55L331.13-13.55Q328.73-15.1 326.68-16.85 324.63-18.6 322.58-20.5L322.58-20.5Q322.53-20.55 321.81-19.98 321.08-19.4 320.08-18.6 319.08-17.8 318.01-16.93 316.93-16.05 316.23-15.5L316.23-15.5Q315.43-14.9 314.33-13.98 313.23-13.05 312.03-12.45 310.83-11.85 309.66-11.9 308.48-11.95 307.53-13.25L307.53-13.25Q306.88-14.25 306.98-15.1 307.08-15.95 307.58-16.65 308.08-17.35 308.86-17.95 309.63-18.55 310.38-19.05L310.38-19.05Q312.33-20.35 314.26-22.1 316.18-23.85 317.88-25.55L317.88-25.55Q318.53-26.2 318.53-26.85 318.53-27.5 318.53-28.45L318.53-28.45 318.53-30.7 310.63-30.7Q309.38-30.65 308.38-30.85L308.38-30.85Q307.53-31.05 306.78-31.6 306.03-32.15 305.93-33.3L305.93-33.3Q305.78-34.95 306.63-35.65 307.48-36.35 308.73-36.45L308.73-36.45Q309.08-36.5 309.91-36.5 310.73-36.5 311.18-36.5L311.18-36.5ZM307.63-1.65L307.63-1.65Q306.83-1.7 306.06-1.88 305.28-2.05 304.68-2.38 304.08-2.7 303.71-3.3 303.33-3.9 303.33-4.9L303.33-4.9Q303.33-5.9 303.98-6.65L303.98-6.65Q304.38-7.05 304.98-7.25 305.58-7.45 306.13-7.55 306.68-7.65 307.11-7.65 307.53-7.65 307.58-7.65L307.58-7.65 335.43-7.6Q336.73-7.6 337.81-7.58 338.88-7.55 339.73-6.85L339.73-6.85Q340.78-5.9 340.78-4.7L340.78-4.7Q340.78-3.95 340.33-3.33 339.88-2.7 339.13-2.45L339.13-2.45Q338.13-2.05 337.06-1.9 335.98-1.75 334.93-1.7L334.93-1.7Q331.28-1.55 327.48-1.6 323.68-1.65 320.33-1.65L320.33-1.65Q316.73-1.65 313.31-1.6 309.88-1.55 307.63-1.65Z" opacity="1" transform="matrix(1,0,0,1,0,0)" fill="#ffffff" class="wordmark-text-0" data-fill-palette-color="quaternary" id="text-0"></path></svg></g></svg></g></svg></g></svg></g><g></g></svg></g><defs></defs></svg><rect width="395.52" height="86.95994654889209" fill="none" stroke="none" visibility="hidden"></rect></g></svg></g></svg>